<svg width="100" height="100" viewBox="0 0 100 100" fill="none" xmlns="http://www.w3.org/2000/svg">
<path d="M76.1976 26.2964C76.1976 25.468 76.8691 24.7964 77.6976 24.7964H93.7742C94.6026 24.7964 95.2742 25.468 95.2742 26.2964V85.0545C95.2742 85.8829 94.6026 86.5545 93.7742 86.5545H77.6976C76.8691 86.5545 76.1976 85.8829 76.1976 85.0545V26.2964Z" stroke="#293CDE" stroke-width="3"/>
<rect x="36.4597" y="13.7581" width="27.1714" height="15.3972" rx="1.5" stroke="#293CDE" stroke-width="3"/>
<path d="M2.58063 26.2964C2.58063 24.6395 3.92377 23.2964 5.58063 23.2964H83.5282V88.0545H5.58063C3.92377 88.0545 2.58063 86.7113 2.58063 85.0545V26.2964Z" fill="#FFAAA9"/>
<path d="M83.5282 24.7681C81.4432 34.3346 69.8407 53.8356 43.0544 53.8356C16.2681 53.8356 8.83566 39.6085 8.46771 32.4949" stroke="#293CDE" stroke-width="3" stroke-linecap="round"/>
<rect x="33.4879" y="48.3164" width="19.1331" height="11.0383" rx="3" fill="white"/>
</svg>
