<svg width="100" height="100" viewBox="0 0 100 100" fill="none" xmlns="http://www.w3.org/2000/svg">
<path d="M89.0859 27.5942L94.443 30.328C95.7786 31.0096 96.4009 32.5604 95.8419 33.9518C92.4111 42.4924 79.2708 71.8169 52.4989 94.7755C51.565 95.5764 50.2276 95.7077 49.1478 95.1181L20.0717 79.2416C18.3149 78.2823 17.9702 75.9015 19.3233 74.4265C20.014 73.6734 20.7135 72.8889 21.4203 72.0746" stroke="#293CDE" stroke-width="3" stroke-miterlimit="10"/>
<path fill-rule="evenodd" clip-rule="evenodd" d="M16.6364 65.3842C15.2771 66.8608 15.6232 69.2488 17.3859 70.2084L46.6007 86.1119C47.6772 86.6979 49.0101 86.568 49.941 85.7708C77.0419 62.5648 88.0542 31.8028 90.7027 23.2738C91.118 21.9363 90.4827 20.5429 89.2374 19.9019L58.1557 3.90478C56.5566 3.08177 54.6016 3.83598 53.9305 5.50451C45.5918 26.236 29.6252 51.2746 16.6364 65.3842ZM67.5313 47.7475C67.5313 54.941 61.5231 60.7725 54.1116 60.7725C46.7001 60.7725 40.6918 54.941 40.6918 47.7475C40.6918 40.5539 46.7001 34.7224 54.1116 34.7224C61.5231 34.7224 67.5313 40.5539 67.5313 47.7475Z" fill="#FFAAA9"/>
<ellipse cx="28.3872" cy="30.9678" rx="24.5161" ry="24.5161" fill="#293CDE"/>
<path d="M29.819 43.8706V40.872C33.0577 40.3445 34.8389 37.9845 34.8389 35.4302C34.8389 32.9314 33.3006 30.849 29.9 30.0716L27.444 29.4886C26.1755 29.2109 25.5817 28.489 25.5817 27.6283C25.5817 26.49 26.5264 25.4627 28.2536 25.4627C30.4667 25.4627 31.1684 27.073 31.3304 28.0448L34.65 27.073C34.2721 25.2128 32.9227 22.9917 29.819 22.4086V19.3545H27.0661V22.3253C24.1783 22.7973 21.9652 24.9629 21.9652 27.906C21.9652 30.5714 23.7735 32.4594 26.6883 33.1257L29.1713 33.681C30.5207 33.9864 31.1954 34.7083 31.1954 35.6523C31.1954 36.8739 30.1698 37.7346 28.4156 37.7346C25.9326 37.7346 24.7991 36.1243 24.6371 34.3751L21.2905 35.2081C21.5334 37.5681 23.3147 40.3723 27.0661 40.8998V43.8706H29.819Z" fill="white"/>
</svg>
