<svg width="100" height="100" viewBox="0 0 100 100" fill="none" xmlns="http://www.w3.org/2000/svg">
<path d="M11.2903 46.1289C10 12.9031 35.5914 2.68815 46.129 3.22578C21.6129 10.9678 16.9893 32.258 17.7419 41.9353L11.2903 46.1289Z" stroke="#293CDE" stroke-width="3" stroke-linejoin="round"/>
<path d="M16.7742 76.1288C21.2903 79.032 31.1123 79.5205 30 58.3868C28.7097 33.8709 15.4839 41.2901 15.1613 45.8062" stroke="#293CDE" stroke-width="3" stroke-linecap="round" stroke-linejoin="round"/>
<path fill-rule="evenodd" clip-rule="evenodd" d="M85.2319 74.0337C84.639 73.6384 83.8378 73.7987 83.4425 74.3916C80.3519 79.0275 70.5801 88.759 56.6055 90.1368C55.8964 90.2067 55.3781 90.8383 55.4481 91.5475C55.518 92.2567 56.1496 92.7749 56.8588 92.705C71.8407 91.2279 82.2229 80.8734 85.5898 75.8231C85.9851 75.2302 85.8248 74.429 85.2319 74.0337Z" fill="#293CDE"/>
<path d="M14.5547 59.0491C14.5547 50.8696 16.8652 46.0795 18.1161 43.4922C18.6664 42.3541 17.9743 41.2896 16.7132 41.3782C11.2089 41.765 3.06747 46.3507 2.58526 59.0491C2.10113 71.7978 9.56686 76.7669 15.735 78.2012C17.6716 78.6515 18.8635 76.5552 17.9605 74.7839C15.5182 69.9933 14.5547 65.7256 14.5547 59.0491Z" fill="#FFAAA9"/>
<path d="M97.4077 60.8334C97.7915 47.4015 88.651 42.0948 81.8364 41.5151C81.0474 41.448 80.2971 41.8235 79.7532 42.399C77.6373 44.6382 74.212 47.9336 74.212 59.0491C74.212 69.4855 78.5873 75.412 80.8673 77.9069C81.329 78.4121 81.9886 78.6877 82.6704 78.6282C88.0108 78.1619 97.0267 74.1711 97.4077 60.8334Z" fill="#FFAAA9"/>
<path d="M56.987 90.6881C56.987 89.2628 55.8316 88.1074 54.4063 88.1074H43.7639C42.3386 88.1074 41.1832 89.2628 41.1832 90.6881V94.1934C41.1832 95.6186 42.3386 96.774 43.7639 96.774H54.4063C55.8316 96.774 56.987 95.6186 56.987 94.1933V90.6881Z" fill="#293CDE"/>
<path d="M80.3226 42.5806C78.7742 14.4516 58.4946 5.3762 49.0323 4.51599C45.8065 4.51604 42.5806 2.9033 47.4194 2.25801C54.8387 1.93554 61.9355 0.967889 73.5484 9.35481C85.1613 17.7417 89.6775 34.1936 89.6775 45.1612L80.3226 42.5806Z" fill="#FFAAA9"/>
</svg>
