<svg width="155" height="155" viewBox="0 0 155 155" fill="none" xmlns="http://www.w3.org/2000/svg">
<g clip-path="url(#clip0_2064_13882)">
<circle cx="78" cy="63" r="36" fill="#FFAAA9" stroke="#FFAAA9" stroke-width="4"/>
<path d="M80.2191 83.5H80.7191V83V78.77C85.7075 77.7821 88.5 74.0188 88.5 69.9173C88.5 67.8737 87.8687 65.978 86.526 64.4356C85.1866 62.8968 83.1703 61.745 80.4581 61.1246C80.4574 61.1244 80.4567 61.1243 80.4561 61.1241L76.6533 60.2213L76.6534 60.2213L76.6448 60.2194C75.7313 60.0194 75.1092 59.6701 74.7196 59.2604C74.3358 58.857 74.1514 58.3686 74.1514 57.8245C74.1514 56.3929 75.3313 54.9677 77.7928 54.9677C79.3707 54.9677 80.3638 55.5349 80.9981 56.2388C81.6471 56.9589 81.9532 57.8601 82.0686 58.5522L82.1612 59.1082L82.7022 58.9499L87.8476 57.4436L88.2886 57.3145L88.1972 56.8642C87.5981 53.9147 85.4879 50.3906 80.7191 49.3262V45V44.5H80.2191H75.9522H75.4522V45V49.1878C70.9833 50.0886 67.5458 53.5499 67.5458 58.2548C67.5458 60.4413 68.2906 62.3277 69.6438 63.8004C70.992 65.2675 72.9202 66.299 75.2551 66.8328L75.2574 66.8334L79.1048 67.6938C79.105 67.6938 79.1052 67.6939 79.1054 67.6939C80.0905 67.917 80.7787 68.2811 81.2151 68.7166C81.6423 69.143 81.8526 69.6604 81.8526 70.2616C81.8526 71.0545 81.5262 71.715 80.912 72.19C80.2861 72.674 79.3272 72.9892 78.0438 72.9892C76.235 72.9892 74.9678 72.4066 74.1221 71.5508C73.2686 70.6874 72.8024 69.5029 72.6851 68.2359L72.6315 67.6562L72.0665 67.7968L66.8792 69.0879L66.4582 69.1926L66.5026 69.6242C66.8896 73.3844 69.6699 77.8185 75.4522 78.8228V83V83.5H75.9522H80.2191Z" fill="white" stroke="#FFAAA9"/>
<path d="M134.485 130.618H87.501C69.5808 130.618 50.3726 127.263 31.3603 108.062C20.8272 97.4248 13.547 90.1191 8.61745 85.1863C4.32192 80.8879 4.44069 73.5466 10.3264 72.0345V72.0345C13.9064 71.1147 17.6629 71.152 21.2242 72.1425C27.0903 73.961 30.9123 78.4439 33.2084 80.7982" stroke="#293CDE" stroke-width="4" stroke-miterlimit="10" stroke-linecap="round"/>
<path d="M91.3285 113.024H62.1183C55.4884 113.024 49.8669 107.274 53.2987 101.601C54.1664 100.167 55.2012 98.8267 56.3905 97.6113C60.4109 93.5023 65.8745 91.1496 71.6023 91.0608H86.3312C89.5461 91.0608 92.5708 89.6971 95.1064 87.7206C97.8919 85.5492 100.968 83.7705 104.252 82.4409C109.088 80.4822 114.271 79.5393 119.483 79.6702C133.531 79.6702 147.724 87.1155 153.218 110.14" stroke="#293CDE" stroke-width="4" stroke-miterlimit="10" stroke-linecap="round"/>
</g>
<defs>
<clipPath id="clip0_2064_13882">
<rect width="155" height="155" fill="white"/>
</clipPath>
</defs>
</svg>
