<svg width="243" height="47" viewBox="0 0 243 47" fill="none" xmlns="http://www.w3.org/2000/svg">
<path fill-rule="evenodd" clip-rule="evenodd" d="M23.1948 2.16807L23.2957 4.33581L33.5224 11.0789L43.7491 17.8216L43.8405 25.4123C43.8909 29.5873 44.015 33.003 44.1163 33.003C44.2175 33.003 46.2052 31.9475 48.5335 30.6575L52.7664 28.312L52.8598 23.0603L52.9532 17.8085L54.9338 17.6452L56.9147 17.4818L40.194 8.74089C30.9978 3.93356 23.388 0 23.2837 0C23.1794 0 23.1395 0.975712 23.1948 2.16807ZM73.2362 18.9627V34.9841L77.2417 34.8923L81.2472 34.8002L81.3395 28.1832L81.4316 21.5663H87.7312H94.0306V28.2649V34.9636H98.1213H102.212V18.9522V2.94086H98.1213H94.0306V9.14934V15.3578H87.7241H81.4176V9.14934V2.94086H77.3269H73.2362V18.9627ZM116.018 9.58622C111.388 11.058 108.364 13.9573 107.137 18.1007C106.269 21.0317 106.565 25.3688 107.813 28.0107C110.242 33.1526 116.409 36.0595 122.695 35.0263C128.816 34.0202 132.793 30.4317 133.931 24.8885C135.188 18.763 132.319 12.9274 126.809 10.3999C124.781 9.46957 124.161 9.34834 120.961 9.2562C118.625 9.18888 116.908 9.30357 116.018 9.58622ZM151.044 9.74372C149.336 10.328 148.23 11.0125 147.295 12.0631C146.943 12.4578 146.869 12.2729 146.869 11.0089V9.47611H142.778H138.687V22.2303V34.9841L142.693 34.8923L146.698 34.8002L146.869 26.7945C146.991 21.0412 147.165 18.5771 147.487 18.036C148.254 16.7466 149.908 16.014 152.055 16.0127C153.747 16.0113 154.162 16.1443 155.2 17.0184C155.872 17.5834 156.55 18.5519 156.744 19.2241C156.935 19.8835 157.092 23.6991 157.093 27.7036L157.095 34.9841L161.101 34.8923L165.106 34.8002L165.277 26.555L165.447 18.3098L166.55 17.2534C167.541 16.3045 167.894 16.1836 170.01 16.0689C172.288 15.9457 172.407 15.9774 173.612 17.0384C174.413 17.7432 174.97 18.6022 175.173 19.4424C175.346 20.1612 175.491 23.9474 175.495 27.8565L175.504 34.9636H179.424H183.344V26.2005C183.344 15.9568 183.17 15.0262 180.776 12.4745C178.495 10.0414 176.711 9.3222 172.947 9.31697C169.272 9.31174 167.468 9.97246 165.188 12.1585L163.698 13.5858L162.268 12.1644C161.481 11.3824 160.11 10.4342 159.222 10.0564C156.948 9.0902 153.355 8.95296 151.044 9.74372ZM195.105 9.58917C190.821 10.9423 188.798 13.3162 188.798 16.9916C188.798 19.3087 189.303 20.4092 191.035 21.8666C192.51 23.108 192.93 23.274 197.832 24.5493C202.339 25.7217 203.116 26.1465 203.116 27.4369C203.116 28.7018 202.018 29.4089 200.057 29.4073C198.187 29.406 196.403 28.4532 196.1 27.2948L195.883 26.4677H191.802H187.721L187.961 27.5297C188.61 30.4127 191.206 33.1053 194.543 34.3564C196.081 34.9332 197.188 35.0812 200.048 35.0923C203.285 35.105 203.833 35.0162 205.779 34.164C209.654 32.4677 211.493 29.32 210.628 25.8636C209.821 22.6407 207.847 21.2827 201.605 19.6564C197.508 18.5889 196.298 17.954 196.298 16.8714C196.298 14.767 200.173 14.0851 202.097 15.8512C202.657 16.3659 203.116 16.9802 203.116 17.2161C203.116 17.5442 203.997 17.6452 206.866 17.6452C210.529 17.6452 210.615 17.6282 210.608 16.9099C210.596 15.7784 209.334 13.3548 208.124 12.1428C207.526 11.5426 206.269 10.6678 205.332 10.1989C203.864 9.46467 203.129 9.33331 200.048 9.25227C197.747 9.19182 195.981 9.3124 195.105 9.58917ZM213.1 9.88456C213.195 10.1094 215.589 15.5395 218.42 21.9519C221.252 28.3643 223.569 33.7895 223.569 34.0075C223.569 34.2257 222.265 37.1558 220.672 40.5185C219.078 43.8812 217.774 46.7319 217.774 46.8531C217.774 46.974 219.724 47.0322 222.107 46.9819L226.441 46.8904L234.72 28.3022C239.274 18.0784 243 9.6604 243 9.59505C243 9.52969 241.039 9.47611 238.643 9.47611H234.285L231.441 16.9099C229.877 20.9987 228.49 24.5376 228.358 24.7741C228.219 25.0241 226.842 21.9042 225.077 17.3406L222.035 9.47643L217.482 9.47611C213.975 9.47611 212.968 9.56989 213.1 9.88456ZM123.567 16.8423C124.917 17.8295 125.257 18.3846 125.719 20.3602C126.714 24.6163 124.144 28.4283 120.279 28.4283C118.212 28.4283 116.617 27.432 115.567 25.4848C114.9 24.2467 114.798 23.6527 114.917 21.6885C115.09 18.8349 115.947 17.3436 117.986 16.3502C119.802 15.4657 121.942 15.6545 123.567 16.8423ZM18.6936 20.4226V23.8536H21.7617H24.8297V20.4226V16.9916H21.7617H18.6936V20.4226ZM27.6301 20.341L27.7272 23.6903L31.2214 23.7834L34.7155 23.8765V20.4341V16.9916H31.1242H27.5329L27.6301 20.341ZM7.96272 21.3376C2.47301 26.5998 -0.385025 31.808 0.0417708 35.773C0.715031 42.0252 7.90817 45.8777 18.8641 45.8536C25.8568 45.8385 32.4506 44.4054 39.1263 41.4504C45.8487 38.4746 52.9518 32.802 56.8649 27.2846L58.719 24.6705L56.2895 26.8151C50.389 32.0237 42.3044 35.8991 33.0693 37.9456C28.872 38.8759 20.7553 39.1249 17.3382 38.4282C7.59047 36.4412 4.93151 30.1255 9.99818 20.9945C10.8207 19.512 11.4129 18.2987 11.3133 18.2987C11.2141 18.2987 9.70638 19.6662 7.96272 21.3376ZM18.6936 28.9185V32.3495H21.7617H24.8297V28.9185V25.4875H21.7617H18.6936V28.9185ZM27.5568 28.9185V32.3495H31.1362H34.7155V28.9185V25.4875H31.1362H27.5568V28.9185Z" fill="#4B5BE8"/>
</svg>
