<svg width="100" height="100" viewBox="0 0 100 100" fill="none" xmlns="http://www.w3.org/2000/svg">
<g clip-path="url(#clip0_2232_13993)">
<path d="M48.7107 39.705L47.6329 40.7482L48.7107 39.705ZM84.6931 76.8799L85.7709 75.8367L84.6931 76.8799ZM84.67 78.2939L85.7133 79.3717L84.67 78.2939ZM68.7294 93.7231L67.6862 92.6453L67.6862 92.6453L68.7294 93.7231ZM67.3154 93.7001L68.3932 92.6568L67.3154 93.7001ZM31.333 56.5252L30.2552 57.5684L31.333 56.5252ZM31.3561 55.1111L32.3993 56.1889L31.3561 55.1111ZM39.9863 42.5827L38.9085 43.6259L39.9863 42.5827ZM23.1844 25.2239L22.1066 26.2672L23.1844 25.2239ZM34.1993 52.3591L33.1561 51.2813L34.1993 52.3591ZM23.1106 20.8845L22.1763 22.058L23.1106 20.8845ZM12.8439 12.7108L11.9096 13.8843L12.8439 12.7108ZM4.47581 20.5412L12.4795 31.2959L14.8861 29.5049L6.8825 18.7502L4.47581 20.5412ZM7.84564 11.8244L4.95615 14.6212L7.04261 16.7768L9.9321 13.98L7.84564 11.8244ZM24.0449 19.711L13.7782 11.5373L11.9096 13.8843L22.1763 22.058L24.0449 19.711ZM41.0641 41.5395L24.2622 24.1807L22.1066 26.2672L38.9085 43.6259L41.0641 41.5395ZM45.2716 43.7296L48.34 40.7597L46.2535 38.6041L43.1851 41.574L45.2716 43.7296ZM48.34 40.7597C48.1415 40.9518 47.825 40.9466 47.6329 40.7482L49.7886 38.6617C48.8283 37.6696 47.2456 37.6438 46.2535 38.6041L48.34 40.7597ZM47.6329 40.7482L83.6153 77.9231L85.7709 75.8367L49.7886 38.6617L47.6329 40.7482ZM83.6153 77.9231C83.4232 77.7247 83.4284 77.4082 83.6268 77.2161L85.7133 79.3717C86.7054 78.4115 86.7311 76.8287 85.7709 75.8367L83.6153 77.9231ZM83.6268 77.2161L67.6862 92.6453L69.7726 94.8009L85.7133 79.3717L83.6268 77.2161ZM67.6862 92.6453C67.8846 92.4533 68.2011 92.4584 68.3932 92.6568L66.2376 94.7433C67.1978 95.7354 68.7805 95.7612 69.7726 94.8009L67.6862 92.6453ZM68.3932 92.6568L32.4109 55.4819L30.2552 57.5684L66.2376 94.7433L68.3932 92.6568ZM32.4109 55.4819C32.6029 55.6803 32.5978 55.9969 32.3993 56.1889L30.3129 54.0333C29.3208 54.9936 29.295 56.5763 30.2552 57.5684L32.4109 55.4819ZM32.3993 56.1889L35.2426 53.4369L33.1561 51.2813L30.3129 54.0333L32.3993 56.1889ZM16.216 31.6229L33.1907 49.1603L35.3463 47.0738L18.3716 29.5365L16.216 31.6229ZM38.9085 43.6259C40.6369 45.4117 43.4858 45.4581 45.2716 43.7296L43.1851 41.574C42.5899 42.1502 41.6402 42.1347 41.0641 41.5395L38.9085 43.6259ZM18.3716 29.5365C17.3191 28.4491 15.5843 28.4208 14.4969 29.4733L16.5834 31.6289C16.4803 31.7287 16.3158 31.7261 16.216 31.6229L18.3716 29.5365ZM22.1755 22.0411C20.9895 23.1891 20.9586 25.0811 22.1066 26.2672L24.2622 24.1807C24.2614 24.1799 24.2618 24.1801 24.2626 24.1814C24.2633 24.1826 24.264 24.1839 24.2645 24.1853C24.265 24.1865 24.2652 24.1874 24.2653 24.188C24.2654 24.1885 24.2654 24.1887 24.2654 24.1888C24.2654 24.1888 24.2654 24.1891 24.2653 24.1895C24.2652 24.1901 24.265 24.191 24.2644 24.1922C24.2639 24.1935 24.2631 24.1949 24.2623 24.1961C24.2615 24.1973 24.2611 24.1975 24.262 24.1967L22.1755 22.0411ZM35.2426 53.4369C37.0283 51.7084 37.0748 48.8596 35.3463 47.0738L33.1907 49.1603C33.7668 49.7555 33.7514 50.7052 33.1561 51.2813L35.2426 53.4369ZM22.1763 22.058C22.178 22.0593 22.1776 22.0593 22.1764 22.0578C22.1753 22.0564 22.1742 22.0547 22.1734 22.0531C22.1719 22.0501 22.1721 22.049 22.1721 22.0497C22.1721 22.0505 22.1719 22.0494 22.1731 22.0463C22.1737 22.0446 22.1746 22.0428 22.1756 22.0413C22.1767 22.0397 22.177 22.0396 22.1755 22.0411L24.262 24.1967C25.558 22.9423 25.456 20.8344 24.0449 19.711L22.1763 22.058ZM9.9321 13.98C10.4736 13.4559 11.32 13.4149 11.9096 13.8843L13.7782 11.5373C12.0093 10.1291 9.47022 10.252 7.84564 11.8244L9.9321 13.98ZM12.4795 31.2959C13.4667 32.6225 15.3952 32.779 16.5834 31.6289L14.4969 29.4733C14.6096 29.3642 14.7925 29.3791 14.8861 29.5049L12.4795 31.2959ZM6.8825 18.7502C6.43256 18.1456 6.50108 17.301 7.04261 16.7768L4.95615 14.6212C3.33157 16.1937 3.12599 18.7274 4.47581 20.5412L6.8825 18.7502Z" fill="#293CDE"/>
<path d="M61.6857 34.2464C54.9837 39.6738 27.5814 64.8674 12.8469 78.5158C11.6613 79.614 11.5702 81.4448 12.6272 82.6672L19.1292 90.1868C20.2434 91.4754 22.1955 91.5882 23.4391 90.424C39.7267 75.1764 68.7131 48.0875 70.2388 46.852C72.2381 45.2329 75.6848 43.7658 78.3515 46.241C80.1645 47.924 80.0849 49.9153 79.6866 51.4607C79.3959 52.5887 79.6019 53.7953 80.4242 54.6203L82.4043 56.6068C83.5135 57.7196 85.2934 57.7881 86.4848 56.7638L95.4403 49.0645C96.6486 48.0257 96.7653 46.1961 95.6988 45.0122C94.8994 44.1248 93.6312 43.88 92.4695 44.1576C86.2145 45.6522 87.0559 38.9114 88.7223 33.9967C89.0627 32.9927 88.9245 31.8765 88.2826 31.0328L79.2489 19.1598C79.1048 18.9703 78.9471 18.8043 78.7599 18.6573C74.7843 15.5334 65.742 10.5689 58.0557 7.07321C55.206 5.77722 53.5976 8.75401 55.6581 11.1107C62.47 18.9018 67.7992 29.2955 61.6857 34.2464Z" fill="#FFAAA9"/>
<path d="M49.6774 40.645L64.1935 55.8063" stroke="#293CDE" stroke-width="3"/>
</g>
<defs>
<clipPath id="clip0_2232_13993">
<rect width="100" height="100" fill="white"/>
</clipPath>
</defs>
</svg>
